<?xml version="1.0" encoding="utf-8"?>
<!-- Generator: Adobe Illustrator 22.0.1, SVG Export Plug-In . SVG Version: 6.00 Build 0)  -->
<svg version="1.1" id="dynamic-designs" xmlns="http://www.w3.org/2000/svg" xmlns:xlink="http://www.w3.org/1999/xlink" x="0px"
	 y="0px" viewBox="0 0 70 70" style="enable-background:new 0 0 70 70;" xml:space="preserve">
<style type="text/css">
	.st0{fill:#E5F4FB;}
	.st1{fill:#5F94E0;}
	.st2{fill:#4545C4;}
	.st3{fill:#29296D;}
</style>
<circle id="background" class="st0" cx="35" cy="35" r="35"/>
<path id="businesscard-back" class="st1" d="M59.7,44.1l-42.3,9c-1.1,0.2-2.2-0.5-2.4-1.6l-5-24c-0.2-1.1,0.5-2.2,1.6-2.4l42.3-9
	c1.1-0.2,2.2,0.5,2.4,1.6l5.1,24C61.5,42.8,60.8,43.9,59.7,44.1z"/>
<path id="businesscard-front" class="st2" d="M56.9,48.5H14.2c-1.1,0-2-0.9-2-2V22.7c0-1.1,0.9-2,2-2h42.7c1.1,0,2,0.9,2,2v23.8
	C59,47.5,58,48.5,56.9,48.5z"/>
<ellipse id="circel" class="st3" cx="35.4" cy="34.4" rx="8.4" ry="8.3"/>
<path id="play_button" class="st0" d="M34,31.4c-0.1,0-0.1-0.1-0.2-0.1c-0.2,0-0.3,0.1-0.3,0.3v5.5c0,0.2,0.1,0.3,0.3,0.3
	c0.1,0,0.1,0,0.2-0.1l4.5-2.6c0.1-0.1,0.2-0.2,0.2-0.4s-0.1-0.3-0.2-0.4L34,31.4z"/>
</svg>
