<?xml version="1.0" encoding="utf-8"?>
<!-- Generator: Adobe Illustrator 22.0.1, SVG Export Plug-In . SVG Version: 6.00 Build 0)  -->
<svg version="1.1" id="fraud-protection" xmlns="http://www.w3.org/2000/svg" xmlns:xlink="http://www.w3.org/1999/xlink" x="0px"
	 y="0px" viewBox="0 0 68 68" style="enable-background:new 0 0 68 68;" xml:space="preserve">
<style type="text/css">
	.st0{fill:#E5F4FB;}
	.st1{opacity:0.48;fill:#5F94E0;enable-background:new    ;}
	.st2{fill:#FFFFFF;}
	.st3{fill:#4545C4;}
</style>
<circle id="bg" class="st0" cx="34" cy="34" r="34"/>
<path id="city" class="st1" d="M50.7,63.4c-0.3,0-0.4-0.1-0.4-0.4c0-2.5,0-5,0-7.5c0-0.3,0.1-0.3,0.4-0.3c1.3,0,2.6,0,3.9,0
	c0.3,0,0.4,0.1,0.4,0.4c0,1.2,0,2.5,0,3.7c0,0.5,0,1,0,1.5c0.5-0.4,1-0.8,1.4-1.2c0-0.1,0-0.2,0-0.3c0-1.2,0-2.4,0-3.6
	c0-0.4,0.1-0.5,0.4-0.5c1.2,0,2.5,0,3.7,0c0,0,0,0,0.1,0c0.7-0.9,1.3-1.8,1.9-2.7c0-1.7,0-3.4,0-5.1c0-0.3,0.1-0.4,0.4-0.4
	c0.8,0,1.7,0,2.5,0c0.2-0.6,0.5-1.1,0.7-1.7c-1,0-2.1,0-3.1,0c-0.3,0-0.4-0.1-0.4-0.4c0-1.8,0-3.7,0-5.5c0-0.3,0.1-0.4,0.4-0.4
	c0.1,0,0.2,0,0.4,0c0.3,0,0.5,0,0.5-0.4c0.1-0.4,0.5-0.7,0.9-0.7s0.8,0.3,0.8,0.8c0,0.3,0.1,0.4,0.4,0.3h0.1c1.1,0,1.1,0,1.1,1.1
	c0,0.5,0,1.1,0,1.6c0.5-2.1,0.8-4.3,0.8-6.6c-1-1-1.5-2.3-2-3.6c-0.1-0.3,0-0.5,0.4-0.4c0.2,0,0.3,0,0.2-0.3c-0.5-0.7-1-1.4-1.7-2
	c-1.3-0.9-2.6-1-4-0.2c-0.9,0.6-1.6,1.4-2.3,2.2c-0.1,0.1-0.1,0.2,0.1,0.2c0.6,0.2,0.6,0.3,0.4,0.9s-0.4,1.1-0.7,1.6
	c-0.4,0.7-0.7,1.3-1.3,1.8c-0.2,0.2-0.5,0.2-0.7,0c-0.3-0.2-0.5-0.4-0.7-0.7c-0.7-1-1.1-2.1-1.4-3.3c0-0.1,0-0.3,0.2-0.3
	s0.1-0.2,0.1-0.3c-0.5-0.8-1-1.5-1.8-2c-1.2-0.8-2.5-1-3.8-0.2c-1,0.5-1.7,1.4-2.4,2.3c-0.1,0.1-0.1,0.2,0.1,0.2
	c0.2,0,0.2,0.2,0.1,0.4c-0.4,1.1-0.8,2.1-1.4,3.1c-0.6,0.9-0.9,0.9-1.6,0.1c-0.8-0.9-1.2-2-1.6-3.1C42,31.2,42,31,42.4,31
	c0.2,0,0.3-0.1,0.1-0.3c-0.3-0.5-0.7-1-1.1-1.5c-1.6-1.6-3.4-1.6-5.2-0.3c-0.6,0.5-1.1,1.1-1.6,1.6c-0.2,0.2-0.3,0.4,0.1,0.4
	c0.2,0,0.3,0.1,0.2,0.3c-0.4,1.1-0.9,2.2-1.7,3.1c-0.3,0.3-0.5,0.3-0.8,0.1c-0.9-0.6-1.6-1.4-2-2.4c-0.2-0.5-0.5-0.8-0.8-1.2
	c-0.2-0.2-0.4-0.5-0.6-0.7c-1.7-2.2-2.8-4.7-2.8-7.6c0-0.1,0-0.2-0.1-0.3c-1.5-1.6-3.2-2.4-5.4-2.1c-1.8,0.2-3.3,0.9-4.7,2
	c-0.2,0.2-0.3,0.3-0.2,0.6c0.3,1.3,0.1,2.6-0.4,3.8c-0.8,1.9-2.2,3.3-3.8,4.4c-0.3,0.2-0.4,0.4-0.4,0.7c0,2.3,0,4.5,0,6.8
	c0,0.5-0.1,0.5-0.5,0.3c-0.6-0.3-1.2-0.7-1.6-1.2c-1.7-1.8-2.7-4.1-3.6-6.4c-0.1-0.2,0-0.2,0.1-0.3c0.7,0,0.4-0.4,0.4-0.7
	s-0.3-0.2-0.5-0.2c-1.8,0-3.5,0-5.3,0C0.1,31.2,0,32.6,0,34c0,0.8,0,1.5,0.1,2.3c0.1,0,0.2,0,0.3,0c0.2,0,0.3-0.1,0.4-0.3
	c0.1-0.5,0.4-0.8,0.9-0.8s0.8,0.3,0.9,0.8c0.1,0.2,0.2,0.3,0.4,0.3c0.4,0,0.8,0,1.1,0s0.4,0.1,0.4,0.4c0,1.2,0,2.4,0,3.6
	c0,0.3-0.1,0.4-0.4,0.4c-0.8,0-1.6,0-2.4,0c-0.3,0-0.7,0-1,0c0.2,0.8,0.4,1.7,0.6,2.5c0.8,0,1.6,0,2.4,0c0.3,0,0.4,0.1,0.4,0.4
	c0,2,0,4,0,6c0,0.2,0,0.3-0.1,0.4c0.4,0.8,0.9,1.6,1.4,2.4c0,0,0,0,0.1,0c1.3,0,2.5,0,3.8,0c0.3,0,0.4,0.1,0.4,0.4c0,1.7,0,3.3,0,5
	c2.2,2.2,4.7,4.2,7.4,5.7c0.4,0,0.8,0,1.3,0c0.3,0,0.4,0.1,0.4,0.4c0,0.2,0,0.3,0,0.5c1.1,0.5,2.2,1,3.4,1.5c0-0.6,0-1.2,0-1.8
	c0-0.3,0.1-0.4,0.4-0.4c1.3,0,2.7,0,4,0c0.3,0,0.4,0.1,0.4,0.4c0,1.1,0,2.1,0,3.2c2.3,0.5,4.6,0.7,7,0.7c0.2,0,0.4,0,0.6,0
	c0-0.5,0-0.9,0-1.4c0-0.4,0.1-0.5,0.5-0.5c0.9,0,1.8,0,2.8,0c0.3,0,0.4,0.1,0.4,0.4c0,0.4,0,0.8,0,1.2c4.6-0.6,9-2.1,12.9-4.4
	C51,63.4,50.8,63.4,50.7,63.4z M66.1,34.3c0.3,0.4,0.6,0.8,0.8,1.1v0.1c-0.2,0.2-0.4,0.1-0.6,0.1s-0.3,0-0.3-0.2
	C66,35,66,34.7,66.1,34.3z M61.3,29.6c0.8-0.6,2.1-0.7,2.9,0.2c-0.6,0-1,0-1.5,0c-0.4,0-0.9,0-1.3,0c-0.1,0-0.1,0-0.2-0.1
	C61.1,29.7,61.2,29.7,61.3,29.6z M58.4,35.3c0.2-0.2,0.4-0.5,0.5-0.7c0-0.1,0.1-0.2,0.2-0.2c0.1,0,0.1,0.2,0.1,0.2
	c0,0.1,0,0.2,0,0.2c0,0.7-0.1,0.8-0.6,0.7C58.3,35.6,58.3,35.5,58.4,35.3z M56.3,39.3c0-0.3,0.1-0.5,0.4-0.4c0.1,0,0.2,0,0.2,0
	c0.4,0,0.7,0,0.8-0.5c0.1-0.4,0.5-0.6,0.9-0.5c0.4,0,0.7,0.3,0.8,0.7c0.1,0.3,0.2,0.3,0.5,0.3c1,0,0.9-0.2,0.9,0.9
	c0,0.8,0,1.5,0,2.3c0,0.9,0,1.8,0,2.7c0,0.4-0.1,0.5-0.5,0.5c-1.2,0-2.5,0-3.7,0c-0.3,0-0.4-0.1-0.4-0.4
	C56.3,43,56.3,41.1,56.3,39.3z M56.3,47.3c0-0.3,0.1-0.4,0.4-0.4c1.3,0,2.5,0,3.8,0c0.3,0,0.4,0.1,0.4,0.4c0,0.9,0,1.8,0,2.8
	c0,0.9,0,1.8,0,2.8c0,0.3-0.1,0.4-0.4,0.4c-1.3,0-2.5,0-3.8,0c-0.3,0-0.4-0.1-0.4-0.4C56.3,51.1,56.3,49.2,56.3,47.3z M9.7,49.6
	c0,0.3-0.1,0.4-0.4,0.4c-1.3,0-2.6,0-3.8,0C5.1,50,5,49.9,5,49.6c0-1,0-2,0-3s0-2,0-3c0-0.3,0.1-0.4,0.4-0.4c1.3,0,2.6,0,3.8,0
	c0.3,0,0.4,0.1,0.4,0.4C9.7,45.6,9.7,47.6,9.7,49.6z M24.5,33.2c1.2,0,2.3,0,3.4,0c0.3,0,0.4,0.1,0.4,0.4c0,2.2,0,4.5,0,6.7
	c0,0.3-0.1,0.4-0.4,0.4c-1.2,0-2.3,0-3.5,0c-0.3,0-0.4-0.1-0.4-0.4c0-1.1,0-2.2,0-3.3s0-2.2,0-3.3C24,33.4,24.1,33.2,24.5,33.2z
	 M23,21.6L23,21.6C23.1,21.6,23,21.6,23,21.6c-0.1,0-0.1,0-0.2,0H23z M21.2,22.5c0.5,0,0.9,0.4,0.9,1s-0.4,1-0.9,0.9
	c-0.5,0-0.9-0.4-0.9-0.9C20.3,22.9,20.7,22.5,21.2,22.5z M19.3,21.8L19.3,21.8L19.3,21.8L19.3,21.8z M13.6,37c0-1.1,0-2.2,0-3.2
	c0-0.4,0.1-0.5,0.5-0.5c1.1,0,2.3,0,3.4,0c0.3,0,0.4,0.1,0.4,0.4c0,2.2,0,4.4,0,6.7c0,0.3-0.1,0.4-0.4,0.4c-1.2,0-2.3,0-3.5,0
	c-0.4,0-0.4-0.1-0.4-0.5C13.6,39.2,13.6,38.1,13.6,37z M13.6,50c0-2.3,0-4.5,0-6.8c0-0.3,0.1-0.4,0.4-0.4c1.2,0,2.4,0,3.5,0
	c0.4,0,0.4,0.1,0.4,0.4c0,1.1,0,2.3,0,3.4c0,1.1,0,2.2,0,3.3c0,0.3-0.1,0.4-0.4,0.4c-1.2,0-2.3,0-3.5,0C13.7,50.4,13.6,50.3,13.6,50
	z M18.2,60c0,0.3-0.1,0.4-0.4,0.4c-1.2,0-2.3,0-3.5,0c-0.3,0-0.4-0.1-0.4-0.4c0-1.1,0-2.2,0-3.3s0-2.2,0-3.3c0-0.3,0.1-0.4,0.4-0.4
	c1.2,0,2.3,0,3.4,0c0.3,0,0.4,0.1,0.4,0.4C18.2,55.5,18.2,57.7,18.2,60z M18.8,49.9c0-2.3,0-4.5,0-6.8c0-0.3,0.1-0.4,0.4-0.4
	c1.2,0,2.4,0,3.6,0c0.3,0,0.4,0.1,0.4,0.4c0,1.1,0,2.3,0,3.4s0,2.2,0,3.3c0,0.3-0.1,0.4-0.4,0.4c-1.2,0-2.3,0-3.5,0
	C18.9,50.4,18.8,50.3,18.8,49.9z M18.8,40.3c0-2.2,0-4.4,0-6.7c0-0.3,0.1-0.4,0.4-0.4c1.2,0,2.3,0,3.5,0c0.4,0,0.4,0.1,0.4,0.5
	c0,1.1,0,2.2,0,3.3s0,2.2,0,3.3c0,0.3-0.1,0.4-0.4,0.4c-1.2,0-2.3,0-3.5,0C18.9,40.8,18.8,40.7,18.8,40.3z M23.4,60
	c0,0.3-0.1,0.4-0.4,0.4c-1.2,0-2.3,0-3.5,0c-0.3,0-0.4-0.1-0.4-0.4c0-1.1,0-2.2,0-3.3s0-2.2,0-3.3c0-0.3,0.1-0.4,0.4-0.4
	c1.2,0,2.3,0,3.5,0c0.3,0,0.4,0.1,0.4,0.4C23.4,55.5,23.4,57.7,23.4,60z M23.6,30.1c-0.8,0-1.6,0-2.5,0c-0.8,0-1.6,0-2.4,0
	c-0.3,0-0.4-0.1-0.4-0.4c0-1.2,0-2.4,0-3.6c0-0.3,0.1-0.4,0.4-0.4c1.6,0,3.2,0,4.9,0c0.3,0,0.4,0.1,0.4,0.4c0,1.2,0,2.4,0,3.6
	C24.1,30,23.9,30.1,23.6,30.1z M24,49.9c0-2.2,0-4.5,0-6.7c0-0.3,0.1-0.4,0.4-0.4c1.2,0,2.3,0,3.5,0c0.3,0,0.4,0.1,0.4,0.4
	c0,1.1,0,2.3,0,3.4s0,2.2,0,3.4c0,0.3-0.1,0.4-0.4,0.4c-1.2,0-2.4,0-3.5,0C24.1,50.4,24,50.2,24,49.9z M28.6,60
	c0,0.3-0.1,0.4-0.4,0.4c-1.2,0-2.4,0-3.5,0c-0.3,0-0.4-0.1-0.4-0.4c0-1.1,0-2.3,0-3.4c0-1.1,0-2.2,0-3.3c0-0.3,0.1-0.5,0.5-0.5
	c1.2,0,2.3,0,3.4,0c0.4,0,0.4,0.1,0.4,0.5C28.6,55.5,28.6,57.7,28.6,60z M33.9,35.3c0.4-0.4,0.7-0.9,1.1-1.4h0.1c0,0.4,0,0.9,0,1.4
	c0,0.1-0.1,0.2-0.2,0.2c-0.3,0-0.6,0-0.9,0C33.9,35.5,33.8,35.5,33.9,35.3z M30.5,36.8L30.5,36.8l0.1-0.1l0,0
	C30.6,36.7,30.5,36.7,30.5,36.8z M31.8,35.5c-0.4,0-0.8,0-1.2,0c-0.1,0-0.2-0.1-0.2-0.2c0-0.3,0-0.6,0-0.9c0-0.2,0.1-0.2,0.2-0.1
	C31,34.7,31.5,35.1,31.8,35.5C31.9,35.5,31.9,35.5,31.8,35.5z M35.2,62.4c-0.6,0-1.2,0-1.8,0c-0.3,0-0.4-0.1-0.4-0.4
	c0-1.8,0-3.6,0-5.5c0-0.2,0-0.4,0.3-0.4c0.7,0,1.4,0,2.1,0c0.1,0,0.2,0,0.2,0.2c0.1,0.2,0,0.5,0,0.7c0,1.6,0,3.2,0,4.8
	C35.7,62.3,35.5,62.4,35.2,62.4z M36.6,50.1c0,0.9,0,1.8,0,2.7c0,0.3-0.1,0.4-0.4,0.4c-1.3,0-2.5,0-3.8,0c-0.3,0-0.4-0.1-0.4-0.4
	c0-1.8,0-3.7,0-5.5c0-0.3,0.1-0.4,0.4-0.4c1.2,0,2.5,0,3.8,0c0.3,0,0.4,0.1,0.4,0.4C36.6,48.3,36.6,49.2,36.6,50.1z M36.2,45.2
	c-1.3,0-2.5,0-3.8,0c-0.3,0-0.4-0.1-0.4-0.4c0-1.8,0-3.7,0-5.5c0-0.3,0.1-0.5,0.4-0.4c0.1,0,0.2,0,0.3,0c0.4,0,0.6,0,0.7-0.5
	c0.1-0.4,0.5-0.6,0.9-0.6s0.8,0.3,0.9,0.7c0,0.3,0.2,0.4,0.5,0.4c1,0,1,0,1,1c0,0.1,0,0.2,0,0.3c0,0.6,0,1.2,0,1.8
	c0,0.9,0,1.8,0,2.7C36.7,45.1,36.5,45.2,36.2,45.2z M37.4,29.9c-0.1,0-0.2,0-0.2-0.1s0-0.1,0.1-0.2c0.6-0.6,2.1-0.5,2.7,0
	c0,0,0.1,0.1,0.1,0.2s-0.1,0.1-0.2,0.1c-0.4,0-0.9,0-1.3,0S37.8,29.9,37.4,29.9z M41.7,62c0,0.3-0.1,0.3-0.4,0.3c-0.6,0-1.2,0-1.8,0
	c-0.3,0-0.4-0.1-0.4-0.4c0-0.9,0-1.8,0-2.7s0-1.8,0-2.7c0-0.3,0.1-0.4,0.4-0.4c0.6,0,1.2,0,1.8,0c0.2,0,0.4,0.1,0.4,0.4
	C41.7,58.4,41.7,60.2,41.7,62z M42.3,53.3c-1.2,0-2.5,0-3.8,0c-0.3,0-0.4-0.1-0.4-0.4c0-1.8,0-3.7,0-5.5c0-0.3,0.1-0.4,0.4-0.4
	c1.3,0,2.6,0,3.8,0c0.3,0,0.4,0.1,0.4,0.4c0,0.9,0,1.9,0,2.8c0,0.9,0,1.8,0,2.7C42.8,53.2,42.6,53.3,42.3,53.3z M42.3,45.2
	c-1.2,0-2.5,0-3.7,0c-0.4,0-0.5-0.1-0.5-0.5c0-0.9,0-1.8,0-2.7s0-1.8,0-2.7c0-0.4,0.1-0.5,0.5-0.5c0.1,0,0.2,0,0.4,0
	c0.3,0,0.4-0.1,0.5-0.4c0.1-0.4,0.4-0.6,0.8-0.6c0.4,0,0.8,0.2,0.9,0.6c0.1,0.4,0.3,0.4,0.6,0.4c1.1,0,1-0.1,1,0.9
	c0,1.6,0,3.3,0,4.9C42.8,45,42.7,45.2,42.3,45.2z M42.9,35.6L42.9,35.6c-0.9,0-0.9,0-0.9-0.9c0.1-0.2-0.2-0.6,0.1-0.7
	c0.1-0.1,0.3,0.4,0.4,0.6c0.2,0.3,0.4,0.5,0.6,0.7c0.1,0.1,0.2,0.1,0.1,0.2S43,35.6,42.9,35.6z M46.2,35c0.2-0.3,0.4-0.6,0.6-1
	c0,0,0,0,0.1,0c0,0.4,0,0.9,0,1.4c0,0.1-0.1,0.2-0.2,0.2c-0.3,0-0.6,0.1-0.8-0.1C45.8,35.3,46.1,35.2,46.2,35z M44.2,39.3
	c0-0.4,0.1-0.5,0.5-0.5c0.1,0,0.2,0,0.4,0c0.3,0,0.6,0,0.7-0.4c0.1-0.4,0.5-0.6,0.9-0.6s0.8,0.3,0.8,0.7c0,0.3,0.2,0.3,0.4,0.3
	c0.9,0,0.9,0,0.9,0.9c0,0.8,0,1.5,0,2.2c0,0.9,0,1.8,0,2.8c0,0.3-0.1,0.4-0.4,0.4c-1.2,0-2.4,0-3.6,0c-0.5,0-0.5,0-0.5-0.5
	C44.2,42.9,44.2,41.1,44.2,39.3z M47.8,62c0,0.3-0.1,0.4-0.4,0.4c-0.6,0-1.2,0-1.8,0c-0.3,0-0.4-0.1-0.4-0.4c0-0.9,0-1.8,0-2.7
	s0-1.8,0-2.6c0-0.3,0.1-0.4,0.4-0.4c0.6,0,1.2,0,1.7,0c0.3,0,0.4,0.1,0.4,0.4C47.8,58.4,47.8,60.2,47.8,62z M48.4,53.3
	c-1.3,0-2.5,0-3.8,0c-0.3,0-0.4-0.1-0.4-0.4c0-1.9,0-3.7,0-5.6c0-0.3,0.1-0.4,0.4-0.4c1.3,0,2.6,0,3.9,0c0.3,0,0.4,0.1,0.4,0.4
	c0,0.9,0,1.9,0,2.8c0,0.9,0,1.8,0,2.8C48.8,53.2,48.7,53.3,48.4,53.3z M54.9,52.9c0,0.3-0.1,0.4-0.4,0.4c-1.3,0-2.6,0-3.8,0
	c-0.3,0-0.4-0.1-0.4-0.4c0-0.9,0-1.9,0-2.8c0-0.9,0-1.9,0-2.8c0-0.3,0.1-0.4,0.4-0.4c1.3,0,2.6,0,3.9,0c0.3,0,0.4,0.1,0.4,0.4
	C54.8,49.2,54.9,51,54.9,52.9z M54.3,34.3c0.3,0.4,0.4,0.8,0.7,1.1v0.1c-0.1,0.1-0.3,0-0.5,0c-0.1,0-0.3,0-0.3-0.1
	C54.3,35.1,54.2,34.8,54.3,34.3z M53.4,38.4c0.1,0.4,0.3,0.4,0.6,0.4c1.1,0,0.9-0.1,0.9,0.9c0,1.6,0,3.3,0,4.9
	c0,0.4-0.1,0.5-0.5,0.5c-1.2,0-2.5,0-3.7,0c-0.4,0-0.5-0.1-0.5-0.5c0-0.9,0-1.8,0-2.7s0-1.9,0-2.8c0-0.3,0.1-0.5,0.4-0.4
	c0.1,0,0.3,0,0.4,0c0.3,0,0.5-0.1,0.5-0.4c0.1-0.4,0.4-0.7,0.8-0.7C52.9,37.7,53.3,38,53.4,38.4z M49.2,29.8
	c0.4-0.5,1.5-0.7,2.1-0.5c0.3,0.1,0.5,0.2,0.8,0.4c0,0,0,0.1,0.1,0.1l-0.1,0.1C51.1,29.9,50.1,29.8,49.2,29.8L49.2,29.8z"/>
<path id="cloud01" class="st2" d="M59.2,11.2c-0.8,0.1-1.5,0.5-1.9,1.1c-0.1,0.1-0.1,0.2-0.2,0.2c-0.2-0.4-0.5-0.6-0.9-0.9
	c-1.2-0.8-3.2-0.5-4,0.7c-0.1,0.2-0.3,0.3-0.5,0.3s-0.4,0-0.6,0c-0.7,0-1.3,0.3-1.7,0.8c-0.1,0.2-0.3,0.2-0.5,0.2
	c-0.4,0-0.8,0.1-1.2,0.4c-0.1,0.1-0.2,0.2-0.2,0.3c0.1,0.1,0.2,0.1,0.3,0.1c1.5,0,3,0,4.5,0c0.1,0,0.3,0,0.4,0c0.1,0,0.1,0,0.2,0
	c0.9,0,1.8,0,2.7,0c0.4,0,0.9,0,1.3,0c0.1,0,0.1,0,0.2,0c0.1,0,0.3,0,0.4,0c1.4,0,2.8,0,4.3,0C61,13.3,60.1,12.2,59.2,11.2z"/>
<path id="cloud02" class="st2" d="M12.1,20.7c-0.1-0.1-0.3-0.2-0.5-0.2c-0.1,0-0.1,0-0.2-0.1c-0.2-0.2-0.4-0.3-0.7-0.3
	c-0.1,0-0.2,0-0.2,0c-0.1,0-0.2,0-0.2-0.1c-0.1-0.2-0.4-0.3-0.6-0.4c-0.1,0-0.2,0-0.4,0s-0.3,0-0.4,0c-0.3,0.1-0.5,0.2-0.6,0.4
	c0,0.1-0.1,0.1-0.2,0.1c-0.1,0-0.2,0-0.2,0c-0.3,0-0.5,0.1-0.7,0.3c-0.1,0.1-0.1,0.1-0.2,0.1c-0.2,0-0.3,0-0.5,0.2l-0.1,0.1
	c0,0.1,0.1,0,0.1,0c0.6,0,1.1,0,1.7,0c0,0,0,0,0.1,0l0,0c0.3,0,0.6,0,0.9,0c0.3,0,0.6,0,0.9,0l0,0c0,0,0,0,0.1,0c0.6,0,1.1,0,1.7,0
	H12C12.2,20.7,12.2,20.7,12.1,20.7z"/>
<path id="cloud03" class="st2" d="M23.6,16.6c1,0,2,0,3,0c0.1,0,0.2,0,0.2-0.1s-0.1-0.1-0.1-0.2C26.5,16.1,26.3,16,26,16
	c-0.1,0-0.2,0-0.3-0.2c-0.3-0.4-0.7-0.5-1.2-0.5c-0.1,0-0.3,0-0.4,0c-0.2,0-0.3,0-0.3-0.2c-0.5-0.8-1.9-1-2.7-0.5
	c-0.5,0.3-0.8,0.7-0.8,1.2c0,0.2,0,0.4,0.1,0.6c0,0.1,0.2,0.1,0.3,0.1C21.6,16.6,22.6,16.6,23.6,16.6z"/>
<path id="cloud04" class="st2" d="M18.7,4.5c0,0,0.1,0,0.2,0s0.1,0,0.1,0c0.7,0,1.4,0,2.1,0s1.4,0,2.1,0h0.1c0,0,0.1,0,0.2,0
	c1.3,0,2.6,0,3.9,0c0.1,0,0.3,0.1,0.3-0.1c0-0.1-0.1-0.2-0.2-0.3c-0.3-0.3-0.7-0.4-1.1-0.4c-0.2,0-0.3,0-0.5-0.2
	C25.5,3,25,2.7,24.3,2.7c-0.2,0-0.4,0-0.6,0s-0.4-0.1-0.5-0.2C23,2.2,22.8,2,22.5,1.9c-2,0.7-3.9,1.6-5.6,2.6
	C17.6,4.5,18.2,4.5,18.7,4.5z"/>
<circle id="circle" class="st3" cx="33.8" cy="36.2" r="18.4"/>
<path id="check" class="st0" d="M40.7,27.4c-0.1-0.1-0.2-0.1-0.3-0.1s-0.2,0-0.3,0.1l-9.2,11.9c0,0-3.6-3.5-3.7-3.6
	s-0.2-0.3-0.4-0.3s-0.3,0.1-0.4,0.3c-0.1,0.1-1.4,1.4-2,2.1l-0.1,0.1c0,0.1-0.1,0.2-0.1,0.3s0,0.2,0.1,0.3l0.1,0.1
	c0,0,6.4,6.2,6.5,6.3s0.2,0.2,0.4,0.2c0.2,0,0.3-0.2,0.4-0.3L43.3,30c0-0.1,0.1-0.2,0.1-0.3c0-0.1,0-0.2-0.1-0.3L40.7,27.4z"/>
</svg>
