<?xml version="1.0" encoding="utf-8"?>
<!-- Generator: Adobe Illustrator 22.0.1, SVG Export Plug-In . SVG Version: 6.00 Build 0)  -->
<svg version="1.1" id="Layer_1" xmlns="http://www.w3.org/2000/svg" xmlns:xlink="http://www.w3.org/1999/xlink" x="0px" y="0px"
	 viewBox="0 0 70 70" style="enable-background:new 0 0 70 70;" xml:space="preserve">
<style type="text/css">
	.st0{fill:#E5F4FB;}
	.st1{fill:#4545C4;stroke:#4545C4;stroke-width:1.5323;}
	.st2{fill:none;stroke:#4545C4;stroke-width:2.4696;}
	.st3{fill:none;stroke:#29296D;stroke-width:2.4696;}
	.st4{fill:#29296D;stroke:#29296D;stroke-width:1.5323;}
	.st5{fill:#5F94E0;stroke:#5F94E0;stroke-width:1.53;}
</style>
<circle id="bg" class="st0" cx="35" cy="35" r="35"/>
<path id="arrow02" class="st1" d="M57.6,35.2c0,0,0,0.1,0,0.1c0.1,0,0.1,0,0.2-0.1c0.6-0.6,1.2-1.3,1.8-1.9c0.2-0.2,0.3-0.3,0.5-0.5
	c0.3-0.3,0.6-0.3,0.8-0.1c0.2,0.2,0.2,0.5,0,0.8c-0.7,0.7-1.3,1.4-2,2.1c-0.4,0.4-0.8,0.8-1.2,1.3c-0.3,0.3-0.6,0.3-0.8,0
	c-1.2-1.1-2.3-2.2-3.4-3.2c-0.2-0.2-0.2-0.5,0-0.8c0.2-0.2,0.5-0.2,0.8,0c0.8,0.7,1.5,1.4,2.3,2.2c0,0,0.1,0.1,0.1,0.1
	c0,0,0.1,0,0.1,0c0,0,0,0,0-0.1"/>
<path id="arrow-line02" class="st2" d="M13.8,30.1c2.5-9.5,11.2-16.6,21.5-16.6c12.3,0,22.2,9.9,22.2,22.2"/>
<path id="arrow-line" class="st3" d="M55.9,42.6C52.9,51.1,44.7,57.3,35,57.3c-11.7,0-21.3-9.1-22.2-20.6"/>
<path id="arrow" class="st4" d="M13.1,40.1c-0.2-0.8-0.3-1.5-0.4-2.3c0,0,0-0.1,0-0.1c-0.1,0-0.1,0.1-0.1,0.1
	c-0.4,0.6-0.9,1.2-1.3,1.7c-0.2,0.3-0.5,0.7-0.7,1c-0.2,0.3-0.5,0.3-0.7,0.1c-0.2-0.2-0.3-0.5-0.1-0.7c0.9-1.3,1.9-2.5,2.8-3.8
	c0.2-0.3,0.5-0.3,0.9-0.1c1.2,0.9,2.5,1.9,3.7,2.8c0.3,0.2,0.3,0.5,0.1,0.8c-0.2,0.2-0.5,0.2-0.8,0c-0.8-0.6-1.6-1.2-2.4-1.8
	c-0.1-0.1-0.2-0.2-0.3-0.2c-0.1,0,0,0.2,0,0.3c0.1,0.5-0.2,1.3-0.1,1.7"/>
<polygon id="check" class="st5" points="27.9,36 25.8,38.1 32.5,44.8 47.4,29.9 45.3,27.9 32.5,40.6 "/>
</svg>
