<?xml version="1.0" encoding="utf-8"?>
<!-- Generator: Adobe Illustrator 22.0.1, SVG Export Plug-In . SVG Version: 6.00 Build 0)  -->
<svg version="1.1" id="rolodex" xmlns="http://www.w3.org/2000/svg" xmlns:xlink="http://www.w3.org/1999/xlink" x="0px" y="0px"
	 viewBox="0 0 71 71" style="enable-background:new 0 0 71 71;" xml:space="preserve">
<style type="text/css">
	.st0{fill:#E5F4FB;}
	.st1{fill:#4545C4;}
	.st2{fill:#5F94E0;}
	.st3{fill:#29296D;}
</style>
<circle id="bg-card" class="st0" cx="35.5" cy="35.5" r="35.5"/>
<path id="phone" class="st1" d="M53.4,36.8V25c0,0-0.1-1.9-1-2.9c-0.9-1-1.8-1.8-2.8-2c-1-0.2-2.2-0.2-2.2-0.2H22.7
	c0,0-2.6,0.1-4,2.1c0,0-1.1,1.3-1.1,3.2s0,4.6,0,4.6s-0.3,0-0.3,0.2s0,1,0,1v1.4c0,0,0,0.1,0.2,0.1h0v2.5c0,0-0.3,0-0.3,0.2
	s0,4.8,0,4.8s0.1,0.2,0.3,0.2v1.3c0,0-0.3,0-0.3,0.2s0,4.8,0,4.8s0.1,0.2,0.2,0.2v15.5v4c0.7,0.4,1.5,0.8,2.2,1.2V25.1
	c0,0,0.1-1.4,1-2.1c0.9-0.7,1.8-0.8,1.8-0.8h3.7c0,0,0.3,0,0.4,0.1s0.1,0.2,0.1,0.3s-0.1,0.8,0.3,1.3s0.9,0.9,1.5,0.9
	c0.6,0,14,0,14,0s1,0,1.5-0.9c0,0,0.3-0.5,0.3-1c0-0.5,0.2-0.7,0.4-0.7c0.3,0,3.5,0,3.5,0s1.2,0.1,2,0.9c0.8,0.8,1,1.8,1,1.8v42.6
	c0.7-0.4,1.5-0.8,2.2-1.2l0-20v-1.4c0,0,0.3,0,0.3-0.3s0-7.6,0-7.6S53.6,36.8,53.4,36.8z"/>
<path id="card03" class="st2" d="M47.5,59.7H24.3c-0.8,0-1.5,0.7-1.5,1.5v7.4C26.7,70.2,31,71,35.5,71c4.8,0,9.4-1,13.5-2.7v-7.1
	C49,60.4,48.4,59.7,47.5,59.7z"/>
<circle id="card03-circle" class="st3" cx="27.1" cy="64.8" r="2.2"/>
<rect id="card03-line01" x="30.7" y="63.4" class="st3" width="8.1" height="1"/>
<rect id="card03-line02" x="30.7" y="65.1" class="st3" width="15.7" height="1"/>
<path id="card02" class="st2" d="M47.5,58.3H24.3c-0.8,0-1.5-0.7-1.5-1.5V44.6c0-0.8,0.7-1.5,1.5-1.5h23.2c0.8,0,1.5,0.7,1.5,1.5
	v12.2C49,57.7,48.4,58.3,47.5,58.3z"/>
<circle id="card02-circle" class="st3" cx="27.1" cy="47.9" r="2.2"/>
<rect id="card02-line01" x="30.7" y="46.5" class="st3" width="8.1" height="1"/>
<rect id="card02-line02" x="30.7" y="48.2" class="st3" width="15.7" height="1"/>
<path id="card01" class="st2" d="M47.4,41.8H24.2c-0.8,0-1.5-0.7-1.5-1.5V28.1c0-0.8,0.7-1.5,1.5-1.5h23.2c0.8,0,1.5,0.7,1.5,1.5
	v12.2C48.9,41.1,48.3,41.8,47.4,41.8z"/>
<circle id="card-circle" class="st3" cx="27.1" cy="31.1" r="2.2"/>
<rect id="card-line01" x="30.7" y="29.6" class="st3" width="8.1" height="1"/>
<rect id="card-line02" x="30.7" y="31.4" class="st3" width="15.7" height="1"/>
</svg>
