<svg xmlns="http://www.w3.org/2000/svg" viewBox="0 0 3885 1495.3"><path fill="#29296D" d="M583.3 27.9C569.9 2.4 538.5-7.3 513.1 6c-10.6 5.5-18.4 14.2-23 24.3-.1.1-.1.2-.2.4-16.3 33.2-38 47.8-45.7 52.2l-2.9 1.5-9.7 5.1-71.4 38.1-77.3 40.6-13.1 6.8s-.2.2-.7.5l-3.5 1.8c-9.9 4.7-37.6 14.1-85.2 3.4-15.9-3.9-33.2-2.2-48.8 6-34 17.9-47.1 59.9-29.2 93.8 17.9 34 59.9 47.1 93.8 29.2 7.7-4 14.3-9.3 19.7-15.5 4.9-5.2 9.2-11.6 12.2-19.4 17.7-45.3 38.6-63.3 49-69.8l6.1-3.2c.3-.1.5-.2.5-.2l13-6.9 167-87.7c10.8-3.9 32-8.8 64.3-3.9h.3c10.9 1.9 22.6.4 33.1-5.2 25.5-13.2 35.2-44.6 21.9-70z"/><path fill="#29296D" d="M371.9 986.5c-2.4-11.7-8.6-21.6-17-28.8l-.3-.3c-27.5-24.8-35.6-49.6-37.7-58.2l-.7-3.2-2.3-10.8L253.6 602h-.1L208 385.6l-3-14.4s-.1-.3-.2-.8l-.8-3.8c-1.8-10.8-3.3-40 20-82.8 8.1-14.2 11.3-31.3 7.6-48.6-7.9-37.6-44.7-61.6-82.3-53.8-37.6 7.9-61.6 44.7-53.8 82.3 1.8 8.5 5.1 16.3 9.5 23.2 3.7 6.1 8.6 12 15.3 17.1 38.7 29.5 50.3 54.4 53.7 66.2l1.4 6.7v.5l3.1 14.4 46.1 219.4h-.1l63.6 300.3c.8 11.4-.3 33.2-13.9 62.9 0 .1-.1.2-.1.3-4.8 10-6.5 21.6-4.1 33.3 5.9 28.1 33.4 46.1 61.6 40.2 28.2-6.1 46.2-33.6 40.3-61.7zM491.3 27.9C504.7 2.4 536.1-7.3 561.5 6c10.6 5.5 18.4 14.2 23 24.3.1.1.1.2.2.4 16.3 33.2 38 47.8 45.7 52.2l2.9 1.5 9.7 5.1 71.4 38.1 77.3 40.6 13.1 6.8s.2.2.7.5l3.5 1.8c9.9 4.7 37.6 14.1 85.2 3.4 15.9-3.9 33.2-2.2 48.8 6 34 17.9 47.1 59.9 29.2 93.8-17.9 34-59.9 47.1-93.8 29.2-7.7-4-14.3-9.3-19.7-15.5-4.9-5.2-9.2-11.6-12.2-19.4-17.7-45.3-38.6-63.3-49-69.8l-6.1-3.2c-.3-.1-.5-.2-.5-.2l-13-6.9-167-87.7c-10.8-3.9-32-8.8-64.3-3.9h-.3c-10.9 1.9-22.6.4-33.1-5.2-25.5-13.2-35.2-44.6-21.9-70z"/><path fill="#29296D" d="M569.4 10.6c-22.8-17.4-55.5-13-72.9 9.9-6.4 8.4-9.9 18.2-10.5 28-.3 3.9-.3 8.3.4 13.3 3.2 23.7-34.3 78.1-34.3 78.1L332.8 296.6l-.1-.1-160.9 214.7-10.4 13.7-.8 1.1c-4.5 5.6-28.2 31.6-92.3 46.4-2.3.4-4.5.9-6.8 1.5-.1 0-.2.1-.4.1-19.5 4.1-32.8 15-41.8 27-.7.8-1.4 1.7-2 2.5-27.4 36-20.5 87.5 15.5 114.9 24.1 18.4 55.2 21.3 81.3 10.4h.1l1.2-.6c12.4-5.4 23.6-13.9 32.3-25.4.2-.3.5-.7.7-1 9.7-12.1 17.4-28.3 16.1-49 0-.8-.1-1.5-.1-2.3 0-1-.1-2-.2-2.9-3.6-75.3 21-104.4 21-104.4l10.4-13.7L352 320.7 475.8 158s42.8-50.7 66.7-54.3c14-1.3 27.4-8.2 36.6-20.3 17.5-22.7 13.1-55.4-9.7-72.8z"/><path fill="#29296D" d="M912.1 178c-8.7 0-17 1.6-24.7 4.5-6.8 2.3-13.5 6-19.8 11.5-36.8 31.9-63.6 38.1-75.8 39H785c-.3 0-.5-.1-.5-.1l-84.7.1H306.6l-14.7-.1s-.3 0-.9.1h-3.9c-11-.5-39.8-5-77-36.6-12.3-10.8-28.4-17.4-46-17.4-38.4 0-69.5 31.1-69.5 69.5s31.1 69.5 69.5 69.5c8.7 0 17-1.6 24.7-4.5 6.8-2.3 13.5-6 19.8-11.5 36.8-31.9 63.6-38.1 75.8-39h6.9c.3 0 .5.1.5.1l14.7-.1h393.2l84.7.1s.3 0 .9-.1h3.9c11 .5 39.8 5 77 36.6 12.3 10.8 28.4 17.4 46 17.4 38.4 0 69.5-31.1 69.5-69.5S950.5 178 912.1 178z"/><path fill="#29296D" d="M506 10.6c22.8-17.4 55.5-13 72.9 9.9 6.4 8.4 9.9 18.2 10.5 28 .3 3.9.3 8.3-.4 13.3-3.2 23.7 34.3 78.1 34.3 78.1l119.3 156.7.1-.1 160.9 214.6 10.4 13.7.8 1.1c4.5 5.6 28.2 31.6 92.3 46.4 2.3.4 4.5.9 6.8 1.5.1 0 .2.1.4.1 19.5 4.1 32.8 15 41.8 27 .7.8 1.4 1.7 2 2.5 27.4 36 20.5 87.5-15.5 114.9-24.1 18.4-55.2 21.3-81.3 10.4h-.1l-1.2-.6c-12.4-5.4-23.6-13.9-32.3-25.4-.2-.3-.5-.7-.7-1-9.7-12.1-17.4-28.3-16.1-49 0-.8.1-1.5.1-2.3 0-1 .1-2 .2-2.9 3.6-75.3-21-104.4-21-104.4l-10.4-13.7-156.4-208.7-123.9-162.6s-42.8-50.7-66.7-54.3c-14-1.3-27.4-8.2-36.6-20.3-17.4-22.8-13-55.5 9.8-72.9z"/><path fill="#29296D" d="M702.2 986.5c2.4-11.7 8.6-21.6 17-28.8l.3-.3c27.5-24.8 35.6-49.6 37.7-58.2l.7-3.2 2.3-10.8L820.5 602h.1l45.6-216.4 3-14.4s.1-.3.2-.8l.8-3.8c1.8-10.8 3.3-40-20-82.8-8.1-14.2-11.3-31.3-7.6-48.6 7.9-37.6 44.7-61.6 82.3-53.8 37.6 7.9 61.6 44.7 53.8 82.3-1.8 8.5-5.1 16.3-9.5 23.2-3.7 6.1-8.6 12-15.3 17.1-38.7 29.5-50.3 54.4-53.7 66.2l-1.4 6.7v.5l-3.1 14.4-46.1 219.4h.1l-63.6 300.3c-.8 11.4.3 33.2 13.9 62.9 0 .1.1.2.1.3 4.8 10 6.5 21.6 4.1 33.3-5.9 28.1-33.4 46.1-61.6 40.2-28.3-6.1-46.3-33.6-40.4-61.7zM363.9 967.7c-6.8-9.8-16.3-16.5-26.9-19.9-.1 0-.2-.1-.4-.1-34.9-12.2-52.1-31.9-57.4-39l-1.9-2.7-6.3-9-37.5-54-59.4-85.5c-6.3-14-15.3-43.7-11-93.3.3-2.3.5-4.6.7-6.9v-.4c2.1-19.8-4.1-35.8-12.7-48.1l-1.8-2.7c-25.8-37.2-76.9-46.5-114.1-20.7-24.9 17.3-37.3 45.9-35 74.1H.1s.1.5.2 1.3c1.3 13.4 6 26.7 14.2 38.6.2.3.5.7.7 1 8.5 13 21.6 25.3 41.7 30.5.8.2 1.5.4 2.2.6.9.3 1.9.5 2.9.8 72.7 19.8 92.8 52.2 92.8 52.2l9.9 14.1 36.9 52.9 57.4 82.7c5 11 11 30.6 10.1 60.2v.3c-.6 11.1 2.4 22.4 9.2 32.3 16.4 23.6 48.7 29.5 72.4 13.1s29.6-48.8 13.2-72.4z"/><path fill="#29296D" d="M560.2 500.9c-25.9-12.4-57-1.5-69.4 24.4-5.2 10.7-6.3 22.4-4 33.2 0 .1 0 .3.1.4 6.7 36.4-1.9 61-5.5 69.2L480 631l-4.8 9.9-28.3 59.3-29.8 62.2-2.6 5.4-.4.8-24.8 52-43.3 90.9c-7.1 9.8-21.1 24.7-47.3 38.6-.1 0-.2.1-.3.1-9.9 5-18.3 13.2-23.5 23.9-12.4 25.9-1.5 57 24.4 69.4s57 1.5 69.4-24.4c5.2-10.7 6.3-22.4 4-33.2 0-.1 0-.3-.1-.4-6.7-36.4 1.9-61 5.5-69.2l1.4-2.9 4.8-9.9 28.3-59.3 29.8-62.2 2.6-5.4.4-.8 24.8-52 43.4-90.8c7.1-9.8 21.1-24.7 47.3-38.6.1 0 .2-.1.3-.1 9.9-5 18.3-13.2 23.5-23.9 12.3-26 1.4-57-24.5-69.5z"/><path fill="#29296D" d="M514.3 500.9c25.9-12.4 57-1.5 69.4 24.4 5.2 10.7 6.3 22.4 4 33.2 0 .1 0 .3-.1.4-6.7 36.4 1.9 61 5.5 69.2l1.4 2.9 4.8 9.9 28.3 59.3 29.8 62.2 2.6 5.4.4.8 24.8 52 43.4 90.8c7.1 9.8 21.1 24.7 47.3 38.6.1 0 .2.1.3.1 9.9 5 18.3 13.2 23.5 23.9 12.4 25.9 1.5 57-24.4 69.4s-57 1.5-69.4-24.4c-5.2-10.7-6.3-22.4-4-33.2 0-.1 0-.3.1-.4 6.7-36.4-1.9-61-5.5-69.2l-1.4-2.9-4.8-9.9-28.3-59.3-29.8-62.1-2.6-5.4-.4-.8-24.8-52L561 633c-7.1-9.8-21.1-24.7-47.3-38.6-.1 0-.2-.1-.3-.1-9.9-5-18.3-13.2-23.5-23.9-12.4-26-1.5-57 24.4-69.5z"/><path fill="#29296D" d="M710.3 967.7c6.8-9.8 16.3-16.5 26.9-19.9.1 0 .2-.1.4-.1 34.9-12.2 52.1-31.9 57.4-39l1.9-2.7 6.3-9 37.5-54 59.4-85.5c6.3-14 15.3-43.7 11-93.3-.3-2.3-.5-4.6-.7-6.9v-.4c-2.1-19.8 4.1-35.8 12.7-48.1l1.8-2.7c25.8-37.2 76.9-46.5 114.1-20.7 24.9 17.3 37.3 45.9 35 74.1h.1s-.1.5-.2 1.3c-1.3 13.4-6 26.7-14.2 38.6-.2.3-.5.7-.7 1-8.5 13-21.6 25.3-41.7 30.5-.8.2-1.5.4-2.2.6-.9.3-1.9.5-2.9.8-72.7 19.8-92.8 52.2-92.8 52.2l-9.9 14.1-36.9 52.9-57.6 82.7c-5 11-11 30.6-10.1 60.2v.3c.6 11.1-2.4 22.4-9.2 32.3-16.4 23.6-48.7 29.5-72.4 13.1s-29.4-48.8-13-72.4zM177 180.8c-37.7-7.5-74.2 17-81.7 54.7-1.7 8.5-1.7 17-.4 25.1 1 7.1 3.3 14.4 7.4 21.7 20.4 35.7 24.1 60.9 23.9 75.2L100.7 486l-3.4 16.9-.3 1.3c-1.6 6.9-11.5 40.8-62.6 82.3-1.9 1.4-3.7 2.8-5.4 4.3-.1.1-.2.1-.3.2C13 603.2 5.8 618.8 3 633.6c-.2 1-.5 2.1-.7 3.1-8.8 44.4 20 87.6 64.4 96.4 29.8 5.9 59-5.1 77.6-26.3h.1s.3-.4.8-1.1c8.7-10.3 15.1-22.8 17.9-37 .1-.4.1-.8.2-1.2 3.5-15.1 3.2-33.1-7-51.1-.4-.7-.8-1.3-1.1-2-.5-.9-.9-1.7-1.4-2.6-25.4-46.2-28.4-78.2-28-93.2l25.1-126.7 2.9-14.4s0-.3.1-.9l.8-3.8c2.6-10.7 12.7-38.1 50.8-68.4 13-9.9 22.6-24.4 26.1-41.7 7.5-37.9-17-74.4-54.6-81.9z"/><path fill="#29296D" d="M897.8 180.8c37.7-7.5 74.2 17 81.7 54.7 1.7 8.5 1.7 17 .4 25.1-1 7.1-3.3 14.4-7.4 21.7-20.4 35.7-24.1 60.9-23.9 75.2L974 486l3.4 16.9.3 1.3c1.6 6.9 11.5 40.8 62.6 82.3 1.9 1.4 3.7 2.8 5.4 4.3.1.1.2.1.3.2 15.7 12.2 22.9 27.8 25.7 42.6.2 1 .5 2.1.7 3.1 8.8 44.4-20 87.6-64.4 96.4-29.8 5.9-59-5.1-77.6-26.3h-.1s-.3-.4-.8-1.1c-8.7-10.3-15.1-22.8-17.9-37-.1-.4-.1-.8-.2-1.2-3.5-15.1-3.2-33.1 7-51.1.4-.7.8-1.3 1.1-2 .5-.9.9-1.7 1.4-2.6 25.4-46.2 28.4-78.2 28-93.2l-25.1-126.7-2.9-14.4s0-.3-.1-.9l-.8-3.8c-2.6-10.7-12.7-38.1-50.8-68.4-13-9.9-22.6-24.4-26.1-41.7-7.4-37.9 17-74.4 54.7-81.9zM753.2 946.3c-11.9 0-22.9 4-31.7 10.7-.1.1-.2.1-.3.2-29.9 21.8-55.9 24.6-64.8 24.9h-82.6v-.2l-64.5.1H408.7c-11.9-2.2-31.4-8.4-55.2-26-.1-.1-.2-.1-.2-.2-8.8-6.8-19.8-10.8-31.7-10.9-28.7 0-52 23.2-52.1 51.9 0 28.7 23.2 52 51.9 52.1 11.9 0 22.9-4 31.7-10.7.1-.1.2-.1.3-.2 29.9-21.8 55.9-24.6 64.8-24.9h82.6v.2l64.5-.1h100.6c11.9 2.2 31.4 8.4 55.2 26 .1.1.2.1.2.2 8.8 6.8 19.8 10.8 31.7 10.9 28.7 0 52-23.2 52.1-51.9.1-28.7-23.2-52-51.9-52.1zM1482.2 235.4c-24.1 44-45.6 76.9-64.6 98.9-18.9 22-34.3 33-46.2 33-16.3 0-24.5-18.7-24.5-56.2 0-36.3 5.2-69 15.6-97.9 10.4-28.9 25-54.6 43.7-77 18.8-22.4 41-41.5 66.8-57.3s54-28.7 84.6-38.9c30.6-10.2 62.9-17.7 97.1-22.5 34.1-4.8 69.2-7.2 105.1-7.2 42 0 84.2 3.1 126.5 9.2s83 14.7 122 25.8c39 11.1 75.4 24.5 109.3 40.2s63.2 33.1 88.3 52.2 44.8 39.7 59.1 61.9 21.5 45.3 21.5 69.4c0 28.6-6.2 56.9-18.7 84.8s-32 53.1-58.5 75.6c-26.6 22.5-60.6 41-102 55.5s-91.2 22.3-149.1 23.4c36.6 0 68.6 6 96 17.9 27.4 12 50.3 28.1 68.8 48.4s32.4 44.6 41.6 72.9 13.9 57 13.9 86.2c0 23-3.2 46.4-9.5 70.2s-15.8 46.6-28.3 68.5c-12.6 21.9-28.3 42.5-47.2 61.7s-41 35.9-66.4 50.2c-25.4 14.2-54 25.5-85.9 33.7-31.9 8.2-66.9 12.3-105 12.3-24.1 0-49.5-1.5-76.2-4.4-26.7-2.9-53.7-6.9-81-11.8-27.3-5-54.1-10.9-80.4-17.7-26.3-6.9-51.2-14.2-74.5-22.1-10.4-2.4-19.6-6-27.5-10.8-8-4.8-12-13.4-12-25.7 0-62.4 1.6-126.3 4.7-191.7 3.1-65.4 9.5-130.1 19.2-194.2 9.6-64.1 22.6-119.8 38.9-167.1 16.3-47.3 39.5-93.4 69.5-138.1 26.3-18.2 50.3-27.4 71.8-27.4 27.1 0 49.8 15.3 68 45.8-17.1 23.3-31.7 49.3-43.7 77.9s-21.3 54-27.6 76.2-12 49.7-17 82.4-9 64.7-12 95.9c-1.9 17.7-3.5 37.4-4.8 59-1.3 21.6-2.5 42.8-3.6 63.5-1.1 20.7-2 41.3-2.5 61.8s-.8 40.2-.8 59v12.5c0 5.3.5 10.8 1.4 16.5.9 5.7 2.1 10.9 3.6 15.7s3.7 8.2 6.7 10.5c22.6 7.6 47 14 73 19.4s52 8 78 8c31.6 0 62.2-3.9 91.9-11.7 29.7-7.8 56.1-20.1 79.1-37 23-16.9 41.5-38.5 55.4-64.9 13.9-26.4 20.9-60.1 20.9-101.1 0-22-4.1-40.3-12.2-54.9-8.2-14.6-18.8-26.8-32-36.7-13.2-9.9-28.2-17.8-45.1-23.6s-34.1-11.2-51.7-15.9c-17.6-4.8-34.9-9.4-51.7-13.9-16.9-4.5-31.9-10.2-45-17.2-13.2-7-23.8-15.6-32-26-8.2-10.3-12.2-23.8-12.2-40.4 0-7.8.5-14.5 1.4-20.3.9-5.7 3.1-10.5 6.7-14.2s8.7-6.5 15.5-8.3 16.2-2.8 28-2.8c15.9 0 30.4.7 43.6 2 13.1 1.3 27.3 2 42.5 2 35.6 0 67.8-4.4 96.6-13.1s53.3-20.6 73.5-35.5c20.2-14.9 35.8-32.3 46.8-52.2 10.9-19.9 16.4-41.3 16.4-64 0-14.9-4.3-28.6-12.8-41.1s-20.5-23.7-35.9-33.5-33.5-18.5-54.3-26c-20.8-7.4-43.4-13.7-67.9-18.7s-50.3-8.8-77.4-11.2-54.6-3.6-82.4-3.6c-44.9 0-79.8 1.5-104.6 4.5-34.1 3.7-65.9 9.6-95.4 17.6-29.5 8-55.6 18.4-78.4 31-23.3 12.3-40.6 26.7-52.5 42.7zM2621.9 858.6c-13.4 12.3-30 25.4-49.8 39.3-19.9 13.9-41.3 26.8-64.3 38.5s-46.5 21.5-70.4 29.2c-23.9 7.8-46.6 11.7-68.1 11.7-19.4 0-35.7-2.7-49-8.1-13.2-5.4-24-12.9-32.2-22.6-8.2-9.7-14.1-21.5-17.6-35.4-3.5-13.9-5.3-29.3-5.3-46 0-23.3 2.6-50.6 7.8-81.7 10.4-64.9 17.1-101.4 20.1-109.4 5-15.8 15.1-50.8 30.3-105.1 14-44.2 22.7-73 26-86.3 1.8-9.3 6.9-17.8 15.3-25.3 7.6-6.7 16.3-12.2 26-16.6s19.7-7.5 30.1-9.5c10.4-2.1 19.8-3.1 28.2-3.1 15.3 0 25.7 2.9 31.2 8.7 5.5 5.8 8.2 13.5 8.2 23.2 0 8.2-1.9 19.7-5.6 34.5-3.8 14.8-8 31.7-12.8 50.7s-12.1 43.6-21.7 73.8c-9.7 30.1-16.1 55.5-19.3 76.1s-7.4 41.3-12.6 62c-5.2 20.7-7.9 39.8-7.9 57.2 0 17.1 1.8 30.7 5.5 40.7 3.7 10.1 11.3 15.1 22.7 15.1 13.3 0 28.2-4.6 44.5-13.9s32.8-20.5 49.5-33.7c16.7-13.2 33-26.8 49-40.9s30.1-26.2 42.3-36.2v113.1zM2373.3 275c0-8.6 1.8-18.3 5.5-29.2 3.7-10.8 9.7-21 18-30.6 8.3-9.5 19.4-17.6 33.3-24.1s31.2-9.8 51.9-9.8c12.9 0 25.1 1.5 36.6 4.5s21.4 7.6 29.9 13.8 15.2 14.3 20.2 24.4c5 10.1 7.5 22.1 7.5 35.9 0 12.7-2 25.1-6.1 37s-10.5 22.6-19.4 32c-8.9 9.4-20 16.9-33.5 22.7-13.5 5.8-29.7 8.7-48.5 8.7-32.6 0-56.6-7.8-72.1-23.3s-23.3-36.2-23.3-62z"/><path fill="#29296D" d="M2526.8 876.9c0-8.2 1.5-15.1 4.5-20.5s6.9-10.6 11.7-15.5c4.8-4.9 10.4-9.8 16.7-14.9s12.8-11.4 19.5-18.9l178.7-246.8c-6.7-3-12.4-5.8-17.2-8.5-4.8-2.6-9.2-5-13.1-7-3.9-2.1-7.9-3.7-12-4.8-4.1-1.1-8.5-1.7-13.4-1.7-11.9 0-21.7.2-29.5.5-7.8.4-14.4 1.6-19.8 3.8-5.4 2.1-10.2 5.4-14.5 9.6s-9 10.4-14.2 18.2c-11.5 17.2-21.2 29.8-28.9 37.8-7.8 8-14.8 12.1-21.2 12.1-5.9 0-10.1-2.7-12.5-8-2.4-5.4-3.6-12.5-3.6-21.4 0-3.7.2-7.7.5-11.9s.9-8.6 1.7-13c5.6-32.2 13.5-58.3 23.9-78.2 10.4-20 22-35.4 34.8-46.3 12.8-10.9 26.2-18.3 40.1-22.2 13.9-3.9 26.8-5.8 38.7-5.8 8.9 0 17.8 2.2 26.7 6.5 8.9 4.4 17.7 9.2 26.4 14.5s17.6 10.1 26.7 14.5c9.1 4.4 18.5 6.7 28.1 7.1 7.4.4 14.2.6 20.3.6h17c14.8 0 26.7-.3 35.6-.8s15.7-1.2 20.3-2c4.6-.8 7.9-1.4 9.8-2 1.8-.6 3.3-.9 4.5-.9 13 0 22.4 4.6 28.1 13.9s8.6 21.9 8.6 37.8c0 12.8-1.1 23.8-3.3 32.9-.8 3-4.5 6.9-11.1 11.6s-17.8 9.2-33.4 13.3c-4.5 8.3-11.9 19.9-22.3 34.9s-22.4 31.8-35.9 50.2-28.6 39.3-45.1 62.5c-16.5 23.3-31.4 43.5-44.5 60.6s-24.7 31.9-34.5 44.5c-9.8 12.6-16.4 21.1-19.8 25.6l-2.8 11.3c.4 0 3.7 1.3 10 4s13.7 5.5 22.3 8.7 17.5 6.1 27 8.7 17.7 3.9 24.8 3.9c15.6 0 29.8-2.3 42.6-7s24.7-10.6 35.6-17.8c10.9-7.1 21.1-14.7 30.6-22.8s18.6-15.7 27.3-22.8c8.7-7.1 17.3-13 25.9-17.8 8.5-4.7 17.4-7 26.7-7 7 0 13.5 1.7 19.2 5.1s10.6 7.7 14.5 13c3.9 5.3 6.9 11.2 8.9 17.8 2 6.6 3.1 13.1 3.1 19.4 0 10.5-4.1 21.4-12.2 32.8-8.2 11.4-19.1 22.5-32.8 33.4-13.7 10.8-29.7 21.2-47.9 30.9s-37.2 18.4-57 25.8c-19.9 7.4-40.1 13.3-60.7 17.6-20.6 4.3-40 6.5-58.2 6.5-1.5 0-5.4-.7-11.7-2.1-6.3-1.4-14.7-3.8-25-7.2-10.4-3.4-22.5-7.8-36.2-13.1-13.7-5.3-28.8-12.1-45.1-20.3-14.1 4.3-26.3 6.4-36.7 6.4-11.1 0-20.8-1.9-29-5.6s-14.9-8.8-20.3-15.2-9.4-13.7-12-21.9-4-17.4-4-26.6z"/><path fill="#29296D" d="M2886.4 876.9c0-8.2 1.5-15.1 4.5-20.5s6.9-10.6 11.7-15.5c4.8-4.9 10.4-9.8 16.7-14.9s12.8-11.4 19.5-18.9l178.7-246.8c-6.7-3-12.4-5.8-17.2-8.5-4.8-2.6-9.2-5-13.1-7-3.9-2.1-7.9-3.7-12-4.8-4.1-1.1-8.5-1.7-13.4-1.7-11.9 0-21.7.2-29.5.5-7.8.4-14.4 1.6-19.8 3.8-5.4 2.1-10.2 5.4-14.5 9.6s-9 10.4-14.2 18.2c-11.5 17.2-21.2 29.8-28.9 37.8-7.8 8-14.8 12.1-21.2 12.1-5.9 0-10.1-2.7-12.5-8-2.4-5.4-3.6-12.5-3.6-21.4 0-3.7.2-7.7.5-11.9s.9-8.6 1.7-13c5.6-32.2 13.5-58.3 23.9-78.2 10.4-20 22-35.4 34.8-46.3 12.8-10.9 26.2-18.3 40.1-22.2 13.9-3.9 26.8-5.8 38.7-5.8 8.9 0 17.8 2.2 26.7 6.5 8.9 4.4 17.7 9.2 26.4 14.5s17.6 10.1 26.7 14.5c9.1 4.4 18.5 6.7 28.1 7.1 7.4.4 14.2.6 20.3.6h17c14.8 0 26.7-.3 35.6-.8s15.7-1.2 20.3-2c4.6-.8 7.9-1.4 9.8-2 1.8-.6 3.3-.9 4.5-.9 13 0 22.4 4.6 28.1 13.9s8.6 21.9 8.6 37.8c0 12.8-1.1 23.8-3.3 32.9-.8 3-4.5 6.9-11.1 11.6s-17.8 9.2-33.4 13.3c-4.5 8.3-11.9 19.9-22.3 34.9s-22.4 31.8-35.9 50.2-28.6 39.3-45.1 62.5c-16.5 23.3-31.4 43.5-44.5 60.6s-24.7 31.9-34.5 44.5c-9.8 12.6-16.4 21.1-19.8 25.6l-2.8 11.3c.4 0 3.7 1.3 10 4s13.7 5.5 22.3 8.7 17.5 6.1 27 8.7 17.7 3.9 24.8 3.9c15.6 0 29.8-2.3 42.6-7s24.7-10.6 35.6-17.8c10.9-7.1 21.1-14.7 30.6-22.8s18.6-15.7 27.3-22.8c8.7-7.1 17.3-13 25.9-17.8 8.5-4.7 17.4-7 26.7-7 7 0 13.5 1.7 19.2 5.1s10.6 7.7 14.5 13c3.9 5.3 6.9 11.2 8.9 17.8 2 6.6 3.1 13.1 3.1 19.4 0 10.5-4.1 21.4-12.2 32.8-8.2 11.4-19.1 22.5-32.8 33.4-13.7 10.8-29.7 21.2-47.9 30.9s-37.2 18.4-57 25.8c-19.9 7.4-40.1 13.3-60.7 17.6-20.6 4.3-40 6.5-58.2 6.5-1.5 0-5.4-.7-11.7-2.1-6.3-1.4-14.7-3.8-25-7.2-10.4-3.4-22.5-7.8-36.2-13.1-13.7-5.3-28.8-12.1-45.1-20.3-14.1 4.3-26.3 6.4-36.7 6.4-11.1 0-20.8-1.9-29-5.6s-14.9-8.8-20.3-15.2-9.4-13.7-12-21.9-4-17.4-4-26.6z"/><path fill="#29296D" d="M3520.7 986.6l12.2-67.3c-20 17.7-40.9 31.9-62.6 42.8-21.7 10.8-42.8 16.3-63.2 16.3-17.9 0-35.3-3.6-52.2-10.8s-31.9-17.6-45-31.2-23.5-30-31.3-49.5-11.7-41.4-11.7-65.9c0-32.3 2.2-61.8 6.7-88.7s9.9-60.1 16.5-99.6c6.5-39.5 14.2-70.6 23.1-93.3s19-45.7 30.5-69c8.5-16.6 20.7-29.2 36.6-37.9 15.9-8.7 31.4-13 46.6-13 12.9 0 24 3.2 33.3 9.7 9.2 6.4 13.9 16.5 13.9 30.1 0 4.1-.4 8.5-1.3 13.3s-2.4 9.9-4.5 15.5c-6.3 16.9-11.7 37-16.2 60.3-4.5 23.3-10.4 54.3-17.9 93.1s-13.3 69.5-17.7 92.3-6.5 43.3-6.5 61.8c0 9.6.6 18.9 1.9 28 1.3 9 3.6 17.1 6.9 24.2s7.8 12.9 13.3 17.3c5.5 4.4 12.5 6.6 21 6.6 13.6 0 26-6 37.1-17.9s20.6-26.3 28.8-43.1c8.1-16.8 14.7-34.1 19.6-52s8.2-32.8 9.7-44.8l44.6-208.2c2.6-12.3 7.8-23.5 15.7-33.6 7.5-9.7 16.2-18 26.3-24.9 10.1-6.9 20.5-12 31.3-15.4s21.1-5 30.8-5c11.6 0 21.2 2.5 29.1 7.6 7.8 5.1 11.8 13.1 11.8 24 0 3.4-.6 7.3-1.7 11.9-1.7 9.9-4 23.1-7 39.8s-6.2 35.6-9.9 56.8-8.9 51-15.5 89.3c-6.7 38.3-12.1 69.1-16.2 92.4-9.5 55-19.2 114.1-29 177.3 11.4-6.3 23.6-14.1 36.7-23.4 13.1-9.3 27.6-21.7 43.5-37.3s33.8-35.2 53.4-58.7 41.8-53 66.2-88.2l26.7 124c-6.7 11.4-15.2 23.1-25.6 34.9-11.1 12.6-23 24.7-35.6 36.5-18.6 17-31.9 28.4-40.1 34.3-2.6 1.8-16.1 12.5-40.6 31.9-7.4 6.3-32 23.4-73.9 51.2-10.2 6.7-17.3 18.8-21.1 36.5-3.8 17.6-8.2 50.4-13.1 98.3-2.1 13.7-3.5 24.2-4 31.6-2.3 17.7-4.4 34.6-6.4 50.7-2 16-5.6 34.4-10.8 55-5.2 20.6-11.3 39.6-18.3 56.9-7 17.3-16.3 34.5-27.8 51.6s-24.1 31.7-38 43.8c-13.9 12.1-30.6 21.8-50.2 29.3s-41.1 11.2-64.4 11.2c-18.9 0-36.4-2.1-52.5-6.4-16.1-4.3-30.8-10.9-44.1-19.8s-24.2-21.1-32.7-36.5c-8.5-15.4-13.5-33.5-15-54.3-3-39.3 7.8-80.9 32.4-124.7 13.8-24.5 23.4-41.5 29-50.9 5.6-9.5 14.3-23.1 26.3-40.9 11.9-17.4 24.4-33.2 37.4-47.3 26-29.3 47.4-52.9 64.3-70.7 16.9-18.4 37-37.5 60.4-57.9zm1.1 134.3c-25.9 18.6-51.5 48.3-76.6 89.1-25.2 40.8-45.2 82.4-60 124.8-12.2 35.6-6 53.5 18.5 53.5 8.8 0 16.7-1.1 23.7-3.3 7-2.2 13.4-6.2 19.3-12s11-12.1 15.5-18.9c4.4-6.9 9.1-16.5 14.1-29s9.4-24.7 13.2-36.8c3.9-12.1 8.7-28.2 14.6-48.2 3.3-10.8 5.8-22.8 7.4-36 1.6-13.2 3.6-29.1 5.8-47.6 2.5-18.6 3.9-30.5 4.5-35.6z"/></svg>