<?xml version="1.0" encoding="utf-8"?>
<!-- Generator: Adobe Illustrator 22.0.1, SVG Export Plug-In . SVG Version: 6.00 Build 0)  -->
<svg version="1.1" id="Layer_1" xmlns="http://www.w3.org/2000/svg" xmlns:xlink="http://www.w3.org/1999/xlink" x="0px" y="0px"
	 viewBox="0 0 70 70" style="enable-background:new 0 0 70 70;" xml:space="preserve">
<style type="text/css">
	.st0{fill:#E5F4FB;}
	.st1{fill:#5F94E0;}
	.st2{fill:#4545C4;}
</style>
<circle id="bg_1_" class="st0" cx="35" cy="35" r="35"/>
<path id="tree-02" class="st1" d="M45,55.1c3.5-0.3,7-1.8,9.2-4.2c2.2-2.4,2.9-5.6,2.9-9.1c0-2.9-1.7-5.1-3.3-7.3
	c-2.4-3.3-5.6-6-10-6c-3.4,0-6.6,2.1-9,4.2c-2.7,2.4-4.3,5.2-4.3,9.1c0,3.4,0.4,7.3,2.5,9.7c2.3,2.6,6.5,3.6,10.3,3.7
	c0,1,0,2-0.2,3.1c0,0-0.5,9.6-1.4,10.6c-0.1,0.1-0.1,0.4-0.1,0.6c1.5-0.3,2.9-0.6,4.3-1.1c0,0,0,0,0,0c-0.2-0.2-0.4-0.5-0.6-0.8
	c-1-1.2-0.8-10.3-0.8-10.3S44.4,55.6,45,55.1z"/>
<path id="tree-01" class="st2" d="M42,28c-1.2-5.5-6.2-9.7-12.1-9.7c-3.5,0-6.7,1.5-8.9,3.8c-5.4,0.3-9.7,4.8-9.7,10.3
	c0,2.5,0.9,4.8,2.3,6.5c0,0.3,0,0.5,0,0.8c0,7.5,6,13.5,13.5,13.5c0.7,0,1.4-0.1,2.1-0.2c0,1.1-0.1,2.3-0.2,3.6
	c0,0-0.5,9.3-1.4,12.6c1.7,0.4,3.5,0.6,5.3,0.7c-0.4-0.4-0.7-0.9-1.1-1.4c-1.2-1.6-1.1-13.3-1.1-13.3s0-2.1,0.8-2.6
	c0,0,0.1-0.1,0.1-0.1c0.2-0.1,0.4-0.1,0.5-0.2c0.6,0.1,1.3,0.1,1.9,0.1c7.5,0,13.5-6,13.5-13.5C47.6,34.4,45.4,30.4,42,28z"/>
</svg>
