<?xml version="1.0" encoding="UTF-8"?>
<svg width="14px" height="16px" viewBox="0 0 14 16" version="1.1" xmlns="http://www.w3.org/2000/svg" xmlns:xlink="http://www.w3.org/1999/xlink">
    <!-- Generator: Sketch 52.2 (67145) - http://www.bohemiancoding.com/sketch -->
    <title>Shape</title>
    <desc>Created with Sketch.</desc>
    <g id="Homepage" stroke="none" stroke-width="1" fill="none" fill-rule="evenodd">
        <g id="Bizzy-Homepage-models-v2" transform="translate(-1103.000000, -270.000000)" fill="#29296D">
            <g id="Group-2-Copy" transform="translate(294.000000, 244.000000)">
                <path d="M822.614604,39.4395418 L817.855005,34 L822.614604,28.5604582 C823.128465,27.9731876 823.128465,27.0277235 822.614604,26.4404529 C822.100742,25.8531824 821.273461,25.8531824 820.759599,26.4404529 L816,31.8799948 L811.240401,26.4404529 C810.726539,25.8531824 809.899258,25.8531824 809.385396,26.4404529 C808.871535,27.0277235 808.871535,27.9731876 809.385396,28.5604582 L814.144995,34 L809.385396,39.4395418 C808.871535,40.0268124 808.871535,40.9722765 809.385396,41.5595471 C809.899258,42.1468176 810.726539,42.1468176 811.240401,41.5595471 L816,36.1200052 L820.759599,41.5595471 C821.273461,42.1468176 822.100742,42.1468176 822.614604,41.5595471 C823.124821,40.9722765 823.124821,40.0226474 822.614604,39.4395418 L822.614604,39.4395418 Z" id="Shape"></path>
            </g>
        </g>
    </g>
</svg>